<svg id="Layer_1" data-name="Layer 1" xmlns="http://www.w3.org/2000/svg" viewBox="0 0 1080 1080"><defs><style>.cls-1{fill:red;}</style></defs><path d="M594.36,588.33c0,23.58-20.89,38-48.52,38-25.16,0-47.39-9.44-60.2-20.67l13.93-16.84c12.8,9.21,29.87,15.72,46.27,15.72,16.62,0,24-9,24-15.5,0-23.13-78.16-2.24-78.16-50.76,0-20,17.52-34.81,46.49-34.81,15.5,0,37.06,3.14,53.46,15.49l-11.68,18a84.19,84.19,0,0,0-41.78-11.68c-13.7,0-22.23,5.84-22.23,13.7C516,561.82,594.36,542.51,594.36,588.33Z"/><path class="cls-1" d="M376.63,559c2-3.61,4.14-7.16,6.23-10.76,1-1.82,2.24-3.5,3.39-5.24l3.52-5.15,1.77-2.58c.58-.87,1.26-1.66,1.89-2.49l3.84-4.95c1.32-1.62,2.56-3.32,3.94-4.88l4.17-4.7a203,203,0,0,1,38.08-33.22l5.32-3.52,1.34-.88,1.38-.79,2.78-1.58,5.57-3.15c.46-.26.92-.53,1.4-.78l1.43-.7,2.88-1.41,5.78-2.78c1-.49,2-.86,3-1.27l3-1.2,6-2.41c2-.75,4.07-1.37,6.1-2a174.86,174.86,0,0,1,50.72-8.74c1.07,0,2.15-.12,3.23-.08l3.23.09L553,454l1.62.05,1.61.15,3.21.32,6.44.66c2.13.3,4.25.7,6.38,1s4.25.69,6.36,1.12l6.27,1.54,3.14.77,1.56.39,1.54.49a173.51,173.51,0,0,1,46.43,21.53,186.89,186.89,0,0,1,38,33.33,199.69,199.69,0,0,1,27.79,41.37A293.46,293.46,0,0,0,670,520.9a211.71,211.71,0,0,0-39-27.93A183.2,183.2,0,0,0,587,475.51l-1.42-.39-1.45-.3-2.88-.59-5.76-1.2c-1.93-.35-3.88-.58-5.81-.88s-3.88-.59-5.82-.82l-5.86-.45-2.93-.23-1.46-.13-1.47,0-5.87-.11-2.93-.06c-1,0-2,.07-2.94.1a182.6,182.6,0,0,0-46.33,7.46c-1.88.57-3.78,1.08-5.66,1.68l-5.57,2-2.78,1c-.93.34-1.88.63-2.77,1l-5.46,2.32-2.74,1.14-1.37.58c-.45.2-.89.43-1.34.64l-5.33,2.63-2.68,1.31-1.34.66-1.3.72-5.21,2.91a250.44,250.44,0,0,0-39.22,27.84l-4.62,4c-1.55,1.32-3,2.78-4.45,4.17-2.93,2.81-6,5.51-8.78,8.51l-4.28,4.41c-1.43,1.47-2.92,2.9-4.25,4.46C382.19,552.89,379.47,556,376.63,559Z"/></svg>